<?xml version="1.0" encoding="utf-8"?>
<!-- Generator: Adobe Illustrator 22.0.1, SVG Export Plug-In . SVG Version: 6.00 Build 0)  -->
<svg version="1.1" id="Capa_1" xmlns="http://www.w3.org/2000/svg" xmlns:xlink="http://www.w3.org/1999/xlink" x="0px" y="0px"
	 viewBox="0 0 600 600" style="enable-background:new 0 0 600 600;" xml:space="preserve">
<style type="text/css">
	.st0{fill:url(#SVGID_1_);}
	.st1{fill:url(#SVGID_2_);}
</style>
<linearGradient id="SVGID_1_" gradientUnits="userSpaceOnUse" x1="204.1947" y1="304.5973" x2="569" y2="304.5973">
	<stop  offset="0" style="stop-color:#5596FA"/>
	<stop  offset="1" style="stop-color:#78D46E"/>
</linearGradient>
<path class="st0" d="M386.6,487c-100.6,0-182.4-81.8-182.4-182.4S286,122.2,386.6,122.2C487.2,122.2,569,204,569,304.6
	S487.2,487,386.6,487z M386.6,129.7c-96.4,0-174.9,78.5-174.9,174.9s78.5,174.9,174.9,174.9c96.4,0,174.9-78.5,174.9-174.9
	S483,129.7,386.6,129.7z"/>
<linearGradient id="SVGID_2_" gradientUnits="userSpaceOnUse" x1="91.5657" y1="242.8818" x2="417.8671" y2="404.1572">
	<stop  offset="0" style="stop-color:#5596FA"/>
	<stop  offset="1" style="stop-color:#78D46E"/>
</linearGradient>
<polygon class="st1" points="392.7,291.6 370.2,278.6 370.2,300.8 17.7,300.8 17.7,308.3 370.2,308.3 370.2,330.6 392.7,317.6 
	415.2,304.6 "/>
</svg>
