<?xml version="1.0" encoding="utf-8"?>
<!-- Generator: Adobe Illustrator 22.0.1, SVG Export Plug-In . SVG Version: 6.00 Build 0)  -->
<svg version="1.1" id="Capa_1" xmlns="http://www.w3.org/2000/svg" xmlns:xlink="http://www.w3.org/1999/xlink" x="0px" y="0px"
	 viewBox="0 0 480 502" style="enable-background:new 0 0 480 502;" xml:space="preserve">
<style type="text/css">
	.st0{fill:#FFFFFF;}
</style>
<g>
	<g>
		<g>
			<path class="st0" d="M86.6,218.9c-1.4-1.4-2.1-3.1-2.1-5.1c0-2,0.7-3.7,2.1-5.1s3.2-2.1,5.3-2.1c2.1,0,3.9,0.7,5.3,2.1
				s2.1,3.1,2.1,5.1c0,1.9-0.7,3.6-2.1,5.1c-1.4,1.4-3.2,2.2-5.3,2.2C89.7,221.1,88,220.3,86.6,218.9z M85.6,227.6h12.7l0.5,39.4
				v2.9H85.1v-2.9L85.6,227.6z"/>
			<path class="st0" d="M167.5,254.8h-12.8V229h-30v25.8H112v-62.9h12.8v25.5h30v-25.5h12.8V254.8z"/>
			<path class="st0" d="M234.5,200c6.4,6.4,9.6,14.2,9.6,23.4c0,9.1-3.2,16.9-9.6,23.2c-6.4,6.4-14.3,9.5-23.5,9.5
				s-17.1-3.2-23.5-9.5c-6.4-6.4-9.6-14.1-9.6-23.2c0-9.2,3.2-17,9.6-23.4c6.4-6.4,14.3-9.6,23.5-9.6S228.1,193.7,234.5,200z
				 M225.4,238.2c3.9-3.9,5.9-8.9,5.9-14.8s-2-10.9-5.9-14.9c-3.9-4-8.7-6-14.4-6s-10.5,2-14.4,6c-3.9,4-5.9,9-5.9,14.9
				s2,10.9,5.9,14.8c3.9,3.9,8.7,5.9,14.4,5.9S221.5,242.2,225.4,238.2z"/>
			<path class="st0" d="M299.7,254.8h-45.2v-62.9h12.8v51.3h32.5V254.8z"/>
			<path class="st0" d="M356,254.8l-5.4-13.4h-27.8l-5.5,13.4h-13.8l27.2-62.9h11.9l27.2,62.9H356z M336.6,207.4l-9.2,22.4h18.3
				L336.6,207.4z"/>
			<path class="st0" d="M388.6,242.9c1.4,1.4,2.1,3.1,2.1,5.1c0,2-0.7,3.7-2.1,5.1s-3.2,2.1-5.3,2.1c-2.1,0-3.9-0.7-5.3-2.1
				c-1.4-1.4-2.1-3.1-2.1-5.1c0-1.9,0.7-3.6,2.1-5.1c1.4-1.4,3.2-2.2,5.3-2.2C385.4,240.8,387.2,241.5,388.6,242.9z M390.1,194.8
				l-0.5,39.4H377l-0.5-39.4v-2.9h13.6V194.8z"/>
		</g>
	</g>
	<path class="st0" d="M241.6,71.3c-124.9,0-226.4,71.2-226.4,158.7c0,87.5,101.6,158.7,226.4,158.7c25.5,0,50.5-3,74.4-8.8l5.3-1.3
		l4.4,3.2c41.7,30.8,75.9,30.7,97.9,24.8c-25.9-10-38.1-26.1-43.9-38.8l-4.4-9.6l9.2-5.2c53.2-30.4,83.6-75.2,83.6-123
		C468,142.5,366.4,71.3,241.6,71.3z M394.4,328.7c-40.5,28.9-94.7,44.9-152.8,44.9c-58.1,0-112.3-15.9-152.8-44.9
		c-37.8-27-58.6-62.1-58.6-98.7c0-36.6,20.8-71.7,58.6-98.7c40.4-29,94.7-44.9,152.8-44.9c58.1,0,112.4,15.9,152.8,44.9
		c37.8,27,58.6,62.1,58.6,98.7C453,266.6,432.2,301.6,394.4,328.7z"/>
</g>
</svg>
