<?xml version="1.0" encoding="utf-8"?>
<!-- Generator: Adobe Illustrator 22.0.1, SVG Export Plug-In . SVG Version: 6.00 Build 0)  -->
<svg version="1.1" id="Capa_1" xmlns="http://www.w3.org/2000/svg" xmlns:xlink="http://www.w3.org/1999/xlink" x="0px" y="0px"
	 viewBox="0 0 631.6 213" style="enable-background:new 0 0 631.6 213;" xml:space="preserve">
<style type="text/css">
	.st0{fill:url(#SVGID_1_);}
	.st1{fill:url(#SVGID_2_);}
	.st2{fill:#FFFFFF;}
</style>
<g>
	<g>
		<linearGradient id="SVGID_1_" gradientUnits="userSpaceOnUse" x1="6.9416" y1="-11.4598" x2="205.6774" y2="213.9968">
			<stop  offset="0" style="stop-color:#5596FA"/>
			<stop  offset="1" style="stop-color:#78D46E"/>
		</linearGradient>
		<path class="st0" d="M147.9,97.1c-28.8,0-51.3,22.5-51.3,51.3c0,28.8,22.5,51.3,51.3,51.3c28.8,0,51.3-22.5,51.3-51.3
			C199.2,119.7,176.7,97.1,147.9,97.1z M147.9,175.8c-15.1,0-27.3-12.2-27.3-27.3c0-15.1,12.2-27.3,27.3-27.3
			c15,0,27.3,12.2,27.3,27.3C175.2,163.5,163,175.8,147.9,175.8z"/>
		<linearGradient id="SVGID_2_" gradientUnits="userSpaceOnUse" x1="1.2935" y1="-6.4811" x2="200.0293" y2="218.9755">
			<stop  offset="0" style="stop-color:#5596FA"/>
			<stop  offset="1" style="stop-color:#78D46E"/>
		</linearGradient>
		<path class="st1" d="M63.2,12.4c-28.8,0-51.3,22.5-51.3,51.3c0,28.8,22.5,51.3,51.3,51.3c28.8,0,51.3-22.5,51.3-51.3
			C114.5,35,92,12.4,63.2,12.4z M63.2,91.1c-15.1,0-27.3-12.2-27.3-27.3c0-15.1,12.2-27.3,27.3-27.3c15,0,27.3,12.2,27.3,27.3
			C90.5,78.8,78.3,91.1,63.2,91.1z"/>
	</g>
	<g>
		<path class="st2" d="M389.3,85.5l13.5,0v20.8h-13.5v51.5h-21.7v-51.5h-10.3V85.5l10.3,0c0,0,0,0,0,0c0-20.3,11.1-32.4,35.2-31
			l0,20.8v0C394.6,74.6,389.3,77.1,389.3,85.5z"/>
		<path class="st2" d="M447.3,138.8c5.8,0,10.8-2.3,13.6-5.4c0,0,0,0,0,0l17.1,9.8c-7,9.7-17.5,14.6-31,14.6
			c-24.3,0-39.4-16.3-39.4-37.5c0-21.2,15.3-37.5,37.8-37.5c20.7,0,36.1,16.1,36.1,37.5c0,3-0.3,5.8-0.9,8.5h-50.4
			C432.9,136.2,439.5,138.8,447.3,138.8z M460.4,112.9c-2.3-8.2-8.7-11.2-15.1-11.2c-8.1,0-13.5,4-15.5,11.2H460.4z"/>
		<path class="st2" d="M531.9,85.4c0,0,0,24.2,0,24.2c-8.8-1.4-21.3,2.1-21.3,16.2v32.1h-21.3V85.4h21.3l0,14.1
			C513.4,89.9,522.9,85.4,531.9,85.4z"/>
		<path class="st2" d="M297.1,55.5c-28.7,0-51.2,22.5-51.2,51.2c0,28.7,22.5,51.2,51.2,51.2c28.7,0,51.2-22.5,51.2-51.2
			C348.3,78,325.8,55.5,297.1,55.5z M297.1,133.9c-15,0-27.2-12.2-27.2-27.2c0-15,12.2-27.2,27.2-27.2c15,0,27.2,12.2,27.2,27.2
			C324.3,121.7,312.1,133.9,297.1,133.9z"/>
		<path class="st2" d="M589.3,85.4v5c-5.3-3-11.5-4.7-18-4.7c-19.8,0-35.9,15.6-35.9,35.9c0,20.3,16.1,35.9,35.9,35.9
			c6.6,0,12.7-1.7,18-4.7v5h21.1V85.4H589.3z M571.2,138.6c-9.4,0-17-7.6-17-17s7.6-17,17-17s17,7.6,17,17S580.6,138.6,571.2,138.6z
			"/>
	</g>
</g>
</svg>
